<?xml version="1.0" standalone="no"?>
<!DOCTYPE svg PUBLIC "-//W3C//DTD SVG 20010904//EN"
 "http://www.w3.org/TR/2001/REC-SVG-20010904/DTD/svg10.dtd">
<svg version="1.0" xmlns="http://www.w3.org/2000/svg"
 width="1610.000000pt" height="244.000000pt" viewBox="0 0 1610.000000 244.000000"
 preserveAspectRatio="xMidYMid meet">

<g transform="translate(0.000000,244.000000) scale(0.100000,-0.100000)"
fill="#ebe9f0" stroke="none">
<path d="M0 1220 l0 -1220 1280 0 1280 0 0 1220 0 1220 -1280 0 -1280 0 0
-1220z m1617 57 l332 -542 -334 -3 c-184 -1 -486 -1 -670 0 l-334 3 52 85 c29
47 178 291 331 543 153 251 281 457 284 457 4 -1 156 -245 339 -543z"/>
<path d="M5229 2126 c-93 -33 -145 -108 -137 -196 18 -184 278 -240 380 -81
26 41 29 53 26 107 -5 78 -38 126 -112 160 -57 27 -103 30 -157 10z"/>
<path d="M9902 1238 l3 -793 178 -3 177 -2 0 795 0 795 -180 0 -180 0 2 -792z"/>
<path d="M13570 1225 l0 -805 163 2 162 3 3 156 2 156 79 77 c43 42 83 76 88
76 6 0 90 -106 188 -235 l178 -235 194 0 c153 0 193 3 187 13 -4 6 -118 158
-253 336 -135 179 -250 331 -254 339 -6 10 57 77 230 247 l238 234 -195 0
-196 1 -242 -236 -242 -235 -2 453 -3 453 -162 3 -163 2 0 -805z"/>
<path d="M8400 1195 l0 -755 165 0 165 0 0 73 1 72 31 -38 c65 -79 172 -125
313 -134 159 -9 294 33 395 124 68 61 106 119 141 213 73 201 56 449 -41 601
-168 261 -565 318 -780 110 l-50 -47 0 268 0 268 -170 0 -170 0 0 -755z m756
107 c109 -56 169 -217 144 -380 -28 -172 -120 -265 -265 -266 -102 -1 -161 19
-216 74 -64 64 -89 134 -89 250 0 116 14 179 53 237 60 88 121 115 247 110 62
-3 96 -9 126 -25z"/>
<path d="M3670 1185 l0 -755 173 2 172 3 3 272 2 273 345 0 345 0 0 145 0 145
-345 0 -345 0 0 190 0 190 390 0 390 0 0 145 0 145 -565 0 -565 0 0 -755z"/>
<path d="M11130 1620 c-140 -22 -269 -90 -368 -195 -113 -118 -165 -245 -165
-400 0 -335 279 -598 633 -598 184 0 326 58 455 188 121 121 175 247 175 410
0 165 -53 289 -174 410 -122 121 -252 179 -425 189 -42 3 -101 1 -131 -4z
m224 -309 c106 -52 168 -149 174 -271 5 -98 -21 -171 -84 -235 -63 -65 -121
-90 -214 -90 -62 0 -85 5 -132 28 -174 86 -225 312 -108 477 76 107 244 149
364 91z"/>
<path d="M12645 1621 c-145 -24 -270 -86 -365 -181 -109 -108 -166 -231 -177
-376 -23 -325 227 -600 583 -639 161 -18 374 58 496 177 104 101 107 91 -49
181 l-135 78 -40 -46 c-63 -71 -126 -99 -223 -99 -96 0 -158 27 -219 94 -60
67 -81 122 -81 215 0 60 6 91 22 126 29 64 87 125 147 157 43 22 64 27 131 27
99 0 160 -29 228 -106 l46 -52 130 78 c72 42 131 81 131 85 0 18 -80 108 -131
146 -141 108 -334 161 -494 135z"/>
<path d="M6453 1605 c-75 -21 -126 -49 -180 -100 -26 -25 -47 -45 -49 -45 -1
0 -5 29 -9 65 l-7 65 -159 0 -159 0 0 -580 0 -580 165 0 165 0 0 322 c0 362
-1 359 80 451 55 63 124 91 222 91 l78 1 0 163 0 162 -47 -1 c-27 0 -72 -7
-100 -14z"/>
<path d="M7332 1610 c-241 -44 -412 -206 -468 -445 -20 -89 -20 -241 1 -319
39 -148 151 -284 285 -349 117 -57 185 -71 340 -71 144 0 219 14 315 58 64 30
167 106 163 122 -2 6 -42 53 -90 103 l-87 91 -45 -34 c-75 -57 -146 -79 -256
-80 -102 -1 -156 16 -227 70 -32 25 -93 117 -93 142 0 9 95 12 441 12 l442 0
-6 108 c-3 59 -13 134 -22 167 -55 208 -189 354 -375 410 -66 19 -244 28 -318
15z m259 -276 c26 -13 59 -38 74 -56 29 -34 75 -123 75 -145 0 -10 -64 -13
-285 -13 -221 0 -285 3 -285 13 0 27 50 116 82 149 86 86 229 108 339 52z"/>
<path d="M15408 1610 c-257 -47 -424 -213 -404 -401 17 -168 153 -276 387
-309 41 -6 108 -15 150 -21 176 -25 224 -122 91 -182 -38 -17 -66 -21 -147
-21 -117 0 -195 18 -308 71 -42 20 -79 34 -81 32 -6 -6 -106 -227 -106 -234 0
-13 114 -60 197 -81 448 -113 821 19 841 298 9 123 -25 204 -113 267 -71 51
-151 78 -339 115 -96 19 -189 42 -205 51 -60 31 -47 95 29 139 78 46 270 27
400 -39 27 -14 54 -25 60 -25 10 0 120 220 120 240 0 12 -122 58 -214 81 -91
22 -286 33 -358 19z"/>
<path d="M5120 1010 l0 -580 175 0 175 0 0 580 0 580 -175 0 -175 0 0 -580z"/>
</g>
</svg>
